<?xml version="1.0" encoding="utf-8"?>
<!-- Generator: Adobe Illustrator 27.0.0, SVG Export Plug-In . SVG Version: 6.00 Build 0)  -->
<svg version="1.1" id="レイヤー_1" xmlns="http://www.w3.org/2000/svg" xmlns:xlink="http://www.w3.org/1999/xlink" x="0px"
	 y="0px" viewBox="0 0 475.76 121.62" style="enable-background:new 0 0 475.76 121.62;" xml:space="preserve">
<style type="text/css">
	.st0{fill:#FFFFFF;}
</style>
<g>
	<path class="st0" d="M346.44,65.28c-3.77,0-7.24,1.44-10.06,3.76V28.17c0-1.92-1.56-3.48-3.47-3.48c-1.92,0-3.48,1.56-3.48,3.48
		v67.64c0,1.92,1.56,3.47,3.48,3.47c1.91,0,3.47-1.56,3.47-3.47v-0.28c2.82,2.31,6.29,3.76,10.06,3.76
		c9.39-0.01,16.99-7.61,16.99-17C363.44,72.88,355.83,65.28,346.44,65.28z M346.44,92.33c-5.55-0.01-10.05-4.51-10.06-10.05
		c0.01-5.56,4.51-10.04,10.06-10.06c5.55,0.01,10.03,4.5,10.05,10.06C356.48,87.83,351.99,92.32,346.44,92.33z"/>
	<path class="st0" d="M308.65,65.28c-1.65,0-3.22,0.52-4.64,1.39v-38.5c0-1.92-1.56-3.48-3.47-3.48c-1.92,0-3.48,1.56-3.48,3.48
		v67.64c0,1.92,1.56,3.47,3.48,3.47c1.91,0,3.47-1.56,3.47-3.47V76.86c0.01-2.55,2.08-4.63,4.64-4.63c2.56,0.01,4.64,2.09,4.64,4.63
		v18.94c0,1.92,1.56,3.48,3.48,3.48c1.92,0,3.47-1.56,3.47-3.48V76.86C320.24,70.46,315.05,65.28,308.65,65.28z"/>
	<path class="st0" d="M275.65,99.28c-4.35,0.01-8.71-1.67-12.02-4.99l0,0c-3.32-3.31-4.99-7.68-4.99-12.02l0,0
		c-0.01-4.34,1.67-8.71,4.98-12.01l0,0c3.31-3.33,7.68-5,12.02-4.99l0,0c4.35-0.01,8.71,1.67,12.02,4.99l0,0h0.01
		c1.35,1.36,1.35,3.56-0.01,4.91l0,0c-1.36,1.36-3.56,1.36-4.91,0l0,0c-1.98-1.97-4.53-2.94-7.11-2.95l0,0
		c-2.59,0.01-5.14,0.97-7.11,2.95l0,0c-1.97,1.97-2.94,4.52-2.94,7.11l0,0c0.01,2.58,0.97,5.13,2.95,7.11l0,0
		c1.97,1.97,4.52,2.94,7.1,2.94l0,0c2.58-0.01,5.13-0.98,7.12-2.95l0,0c1.36-1.35,3.56-1.34,4.91,0.01l0,0
		c1.35,1.35,1.35,3.55-0.01,4.91l0,0c-3.31,3.31-7.67,4.98-11.99,4.98l0,0C275.67,99.28,275.66,99.28,275.65,99.28L275.65,99.28z"/>
	<path class="st0" d="M175.28,99.28c-4.35,0.01-8.72-1.67-12.03-4.99l0,0c-3.31-3.31-4.98-7.68-4.98-12.02l0,0
		c0-4.34,1.67-8.71,4.98-12.02l0,0c3.31-3.32,7.68-4.99,12.03-4.99l0,0c4.34-0.01,8.71,1.67,12.02,4.99l0,0
		c1.36,1.36,1.36,3.56,0,4.91l0,0c-1.36,1.36-3.56,1.36-4.91,0l0,0c-1.97-1.97-4.54-2.94-7.11-2.95l0,0
		c-2.59,0.01-5.14,0.97-7.12,2.95l0,0c-1.97,1.97-2.94,4.52-2.94,7.11l0,0c0,2.58,0.98,5.13,2.95,7.1l0,0
		c1.97,1.98,4.52,2.95,7.11,2.95l0,0c2.58-0.01,5.14-0.98,7.11-2.94l0,0c1.36-1.36,3.55-1.36,4.91,0l0,0c1.36,1.35,1.36,3.55,0,4.91
		l0,0c-3.31,3.31-7.67,4.98-12,4.98l0,0C175.29,99.28,175.29,99.28,175.28,99.28L175.28,99.28z"/>
	<path class="st0" d="M403.68,92.59c-0.14-0.55-0.33-1.57-0.4-2.85c-0.14-2-0.14-4.6-0.14-7.45c0-9.39-7.61-17-16.99-17
		c-9.39,0-17.01,7.6-17.01,17c0.01,9.39,7.61,17,17.01,17c4.18,0,7.98-1.77,10.94-4.54c0.17,0.57,0.39,1.13,0.7,1.69
		c0.61,1.31,2.42,2.85,4.46,2.85c0.05,0,0.09,0,0.14,0c1.91,0,3.47-1.56,3.47-3.47C405.85,94.35,404.95,93.1,403.68,92.59z
		 M386.14,92.33c-5.56-0.01-10.05-4.51-10.06-10.05c0.01-5.56,4.51-10.04,10.06-10.06c5.56,0.01,10.04,4.49,10.05,10.06
		C396.18,87.83,391.7,92.32,386.14,92.33z"/>
	<path class="st0" d="M228.59,92.59c-0.14-0.55-0.33-1.57-0.4-2.85c-0.14-2-0.14-4.6-0.14-7.45c0-9.39-7.61-17-16.99-17
		c-9.39,0-17.01,7.6-17.01,17c0.01,9.39,7.61,17,17.01,17c4.17,0,7.98-1.77,10.94-4.54c0.17,0.57,0.39,1.13,0.7,1.69
		c0.61,1.31,2.42,2.85,4.46,2.85c0.05,0,0.09,0,0.14,0c1.91,0,3.47-1.56,3.47-3.47C230.76,94.35,229.86,93.1,228.59,92.59z
		 M211.05,92.33c-5.56-0.01-10.05-4.51-10.06-10.05c0.01-5.56,4.51-10.04,10.06-10.06c5.56,0.01,10.04,4.49,10.05,10.06
		C221.09,87.83,216.61,92.32,211.05,92.33z"/>
	<path class="st0" d="M250.65,92.37c-0.79-0.87-2.57-6.02-2.47-15.39c0-0.04,0-0.08,0-0.12l0,0v-4.64h1.94
		c1.92,0,3.47-1.56,3.47-3.47c0-1.92-1.55-3.48-3.47-3.48h-1.94v-4.65c0-1.92-1.56-3.47-3.48-3.47s-3.47,1.55-3.47,3.47v4.65h-1.94
		c-1.92,0-3.48,1.56-3.48,3.48c0,1.91,1.56,3.47,3.48,3.47h1.94v4.64c0,0.04,0.01,0.08,0.01,0.12c0.1,9.37-1.68,14.51-2.47,15.39
		c-1.66,0.25-2.94,1.7-2.94,3.44c0,1.91,1.56,3.47,3.47,3.47c0.01,0,0.02,0,0.04,0c3.17,0,4.68-2.76,5.38-4.31
		c0.7,1.54,2.22,4.31,5.38,4.31c0.01,0,0.02,0,0.04,0c1.92,0,3.47-1.56,3.47-3.47C253.6,94.07,252.32,92.63,250.65,92.37z"/>
	<g>
		<path class="st0" d="M126.06,63.39c2.53-3.07,4.05-7,4.05-11.28v-0.16c-0.01-9.83-7.99-17.8-17.81-17.82H92.09
			c-8.48-7.92-19.31-11.93-30.13-11.93c-11.31,0-22.66,4.33-31.28,12.96C22.05,43.77,17.72,55.1,17.72,66.4
			c0,11.3,4.33,22.64,12.96,31.28c8.63,8.63,19.97,12.96,31.28,12.96c0.01,0,0.01,0,0.02,0c10.82,0,21.64-4.02,30.11-11.93h29.96
			c9.82-0.02,17.79-8,17.8-17.81v-0.17C139.85,72.28,133.95,65.22,126.06,63.39z M61.96,103.64c-9.54,0-19.05-3.62-26.33-10.9
			c-7.27-7.29-10.9-16.8-10.9-26.33s3.63-19.03,10.9-26.3c6.39-6.39,14.49-9.96,22.82-10.74V80.9c0.01,9.82,8,17.8,17.81,17.81h4.14
			C74.71,101.97,68.35,103.64,61.96,103.64z M132.87,80.9c-0.01,5.92-4.88,10.8-10.81,10.81h-45.8c-5.92-0.01-10.8-4.88-10.81-10.81
			V29.36c8.33,0.78,16.43,4.35,22.82,10.72c0.33,0.33,0.72,0.59,1.16,0.77c0.38,0.16,0.77,0.22,1.17,0.24c0.05,0,0.1,0.03,0.16,0.03
			h21.54c5.92,0.01,10.8,4.89,10.81,10.82v0.16c-0.01,5.92-4.89,10.8-10.81,10.81H89.84c-1.94,0-3.5,1.57-3.5,3.5
			c0,1.93,1.57,3.5,3.5,3.5l32.22,0c5.92,0.01,10.8,4.89,10.81,10.81V80.9z"/>
		<path class="st0" d="M78.87,48.9c-2.69,0-4.88,2.19-4.88,4.88c0,2.69,2.19,4.88,4.88,4.88c2.7,0,4.88-2.18,4.88-4.88
			C83.75,51.09,81.57,48.9,78.87,48.9z"/>
	</g>
	<path class="st0" d="M419.7,93.67L419.7,93.67c-0.63,1.1-2.11,5.61-5.87,5.61l0,0c-1.92,0-3.48-1.56-3.48-3.47l0,0
		c0-1.48,0.92-2.75,2.24-3.25l0,0c0.27-0.33,0.74-1.03,1.25-1.98l0,0c0.66-1.24,1.41-2.92,2.18-4.97l0,0
		c-0.25-0.74-0.49-1.52-0.74-2.32l0,0c-2.66-8.78-5.22-20.92-5.22-34.82l0,0c0.17-10.39,0.7-16.88,4.29-21.34l0,0
		c1.26-1.49,3.36-2.47,5.36-2.42l0,0c2-0.05,4.1,0.94,5.36,2.42l0,0c1.29,1.47,2.02,3.22,2.58,5.22l0,0
		c1.07,3.98,1.7,9.22,1.71,16.13l0,0c0,12.17-2.03,22.98-4.25,31.38l0,0c-0.56,2.08-1.14,4.01-1.72,5.76l0,0
		c1.4,3.67,2.78,6.2,3.4,6.94l0,0c1.32,0.49,2.27,1.76,2.27,3.26l0,0c0,1.92-1.56,3.47-3.47,3.47l0,0
		C421.82,99.28,420.31,94.76,419.7,93.67z M426.99,92.75L426.99,92.75C426.99,92.76,426.99,92.76,426.99,92.75L426.99,92.75z
		 M419.7,79.15L419.7,79.15c1.41-6.88,3.01-21.76,3.01-30.68l0,0c0.16-9.91-1.87-16.71-2.83-17.32l0,0c-0.1-0.1-0.37,0-0.37,0h-0.01
		c-0.95,0.61-2.99,7.41-2.82,17.32l0,0C416.69,57.38,418.29,72.27,419.7,79.15L419.7,79.15z"/>
	<path class="st0" d="M445.22,93.67L445.22,93.67c-0.63,1.1-2.11,5.61-5.87,5.61l0,0c-1.92,0-3.47-1.56-3.47-3.47l0,0
		c0-1.48,0.92-2.75,2.24-3.25l0,0c0.27-0.33,0.74-1.03,1.25-1.98l0,0c0.66-1.24,1.41-2.92,2.18-4.97l0,0
		c-0.25-0.74-0.49-1.52-0.74-2.32l0,0c-2.66-8.78-5.22-20.92-5.22-34.82l0,0c0.17-10.39,0.7-16.88,4.29-21.34l0,0
		c1.26-1.49,3.36-2.47,5.36-2.42l0,0c2-0.05,4.1,0.94,5.36,2.42l0,0c1.29,1.47,2.02,3.22,2.57,5.22l0,0
		c1.07,3.98,1.7,9.22,1.71,16.13l0,0c0,12.17-2.03,22.98-4.25,31.38l0,0c-0.56,2.08-1.14,4.01-1.72,5.76l0,0
		c1.4,3.67,2.78,6.2,3.4,6.94l0,0c1.32,0.49,2.27,1.76,2.27,3.26l0,0c0,1.92-1.56,3.47-3.47,3.47l0,0
		C447.34,99.28,445.83,94.76,445.22,93.67z M452.51,92.75L452.51,92.75C452.51,92.76,452.51,92.76,452.51,92.75L452.51,92.75z
		 M445.22,79.15L445.22,79.15c1.41-6.88,3.01-21.76,3.01-30.68l0,0c0.16-9.91-1.87-16.71-2.83-17.32l0,0c-0.1-0.1-0.37,0-0.37,0
		h-0.01c-0.95,0.61-2.99,7.41-2.82,17.32l0,0C442.21,57.38,443.81,72.27,445.22,79.15L445.22,79.15z"/>
</g>
</svg>
